<svg xmlns="http://www.w3.org/2000/svg" xmlns:xlink="http://www.w3.org/1999/xlink" width="500" zoomAndPan="magnify" viewBox="0 0 375 374.999991" height="500" preserveAspectRatio="xMidYMid meet" version="1.0"><defs><g/></defs><path stroke-linecap="butt" transform="matrix(0.380295, -0.646433, 0.646433, 0.380295, 191.55695, 179.072302)" fill="none" stroke-linejoin="miter" d="M -0.00246493 4.499821 L 42.277998 4.498367 " stroke="#ffffff" stroke-width="9" stroke-opacity="1" stroke-miterlimit="4"/><path stroke-linecap="butt" transform="matrix(0.278542, -0.696358, 0.696358, 0.278542, 163.200462, 200.37734)" fill="none" stroke-linejoin="miter" d="M 0.00323994 4.501381 L 42.516835 4.498566 " stroke="#ffffff" stroke-width="9" stroke-opacity="1" stroke-miterlimit="4"/><g fill="#000000" fill-opacity="1"><g transform="translate(132.366032, 233.712282)"><g><path d="M 13.796875 0 L 13.796875 -115.28125 L 53.734375 -115.28125 C 66.078125 -115.28125 76.390625 -112.707031 84.671875 -107.5625 C 92.953125 -102.414062 99.148438 -95.488281 103.265625 -86.78125 C 107.378906 -78.070312 109.4375 -68.410156 109.4375 -57.796875 C 109.4375 -46.109375 107.160156 -35.929688 102.609375 -27.265625 C 98.066406 -18.609375 91.625 -11.898438 83.28125 -7.140625 C 74.945312 -2.378906 65.097656 0 53.734375 0 Z M 94.65625 -57.796875 C 94.65625 -66.453125 93.054688 -74.132812 89.859375 -80.84375 C 86.671875 -87.5625 82.046875 -92.8125 75.984375 -96.59375 C 69.921875 -100.382812 62.503906 -102.28125 53.734375 -102.28125 L 28.40625 -102.28125 L 28.40625 -12.984375 L 53.734375 -12.984375 C 62.609375 -12.984375 70.078125 -14.957031 76.140625 -18.90625 C 82.203125 -22.863281 86.800781 -28.222656 89.9375 -34.984375 C 93.082031 -41.753906 94.65625 -49.359375 94.65625 -57.796875 Z M 94.65625 -57.796875 "/></g></g></g><g fill="#000000" fill-opacity="1"><g transform="translate(61.009846, 287.981583)"><g><path d="M 2.171875 0 L 2.171875 -19.265625 L 9.015625 -19.265625 C 11.085938 -19.265625 12.820312 -18.832031 14.21875 -17.96875 C 15.613281 -17.113281 16.660156 -15.957031 17.359375 -14.5 C 18.054688 -13.050781 18.40625 -11.4375 18.40625 -9.65625 C 18.40625 -7.707031 18.019531 -6.007812 17.25 -4.5625 C 16.476562 -3.113281 15.382812 -1.988281 13.96875 -1.1875 C 12.5625 -0.394531 10.910156 0 9.015625 0 Z M 15.3125 -9.65625 C 15.3125 -11.019531 15.0625 -12.21875 14.5625 -13.25 C 14.0625 -14.289062 13.34375 -15.101562 12.40625 -15.6875 C 11.476562 -16.28125 10.347656 -16.578125 9.015625 -16.578125 L 5.21875 -16.578125 L 5.21875 -2.6875 L 9.015625 -2.6875 C 10.367188 -2.6875 11.507812 -2.992188 12.4375 -3.609375 C 13.375 -4.222656 14.085938 -5.054688 14.578125 -6.109375 C 15.066406 -7.160156 15.3125 -8.34375 15.3125 -9.65625 Z M 15.3125 -9.65625 "/></g></g></g><g fill="#000000" fill-opacity="1"><g transform="translate(83.039787, 287.981583)"><g><path d="M 7.734375 -19.265625 L 10.609375 -19.265625 L 18.109375 0 L 14.90625 0 L 12.859375 -5.234375 L 5.421875 -5.234375 L 3.421875 0 L 0.1875 0 Z M 12.265625 -7.484375 L 9.171875 -15.9375 L 5.96875 -7.484375 Z M 12.265625 -7.484375 "/></g></g></g><g fill="#000000" fill-opacity="1"><g transform="translate(103.957442, 287.981583)"><g><path d="M 5.21875 -13.625 L 5.21875 0 L 2.171875 0 L 2.171875 -19.265625 L 4.671875 -19.265625 L 15.578125 -5.34375 L 15.578125 -19.25 L 18.640625 -19.25 L 18.640625 0 L 15.984375 0 Z M 5.21875 -13.625 "/></g></g></g><g fill="#000000" fill-opacity="1"><g transform="translate(127.370948, 287.981583)"><g><path d="M 2.171875 0 L 2.171875 -19.265625 L 5.21875 -19.265625 L 5.21875 0 Z M 2.171875 0 "/></g></g></g><g fill="#000000" fill-opacity="1"><g transform="translate(137.355643, 287.981583)"><g><path d="M 15.390625 -2.6875 L 15.390625 0 L 2.171875 0 L 2.171875 -19.265625 L 15.140625 -19.265625 L 15.140625 -16.578125 L 5.21875 -16.578125 L 5.21875 -11.09375 L 13.8125 -11.09375 L 13.8125 -8.578125 L 5.21875 -8.578125 L 5.21875 -2.6875 Z M 15.390625 -2.6875 "/></g></g></g><g fill="#000000" fill-opacity="1"><g transform="translate(156.320013, 287.981583)"><g><path d="M 2.171875 0 L 2.171875 -19.265625 L 5.21875 -19.265625 L 5.21875 -2.6875 L 15.546875 -2.6875 L 15.546875 0 Z M 2.171875 0 "/></g></g></g><g fill="#000000" fill-opacity="1"><g transform="translate(174.768941, 287.981583)"><g/></g></g><g fill="#000000" fill-opacity="1"><g transform="translate(184.075413, 287.981583)"><g><path d="M 2.171875 0 L 2.171875 -19.265625 L 5.21875 -19.265625 L 5.21875 -2.6875 L 15.546875 -2.6875 L 15.546875 0 Z M 2.171875 0 "/></g></g></g><g fill="#000000" fill-opacity="1"><g transform="translate(202.52434, 287.981583)"><g><path d="M 10.171875 0.140625 C 8.785156 0.140625 7.53125 -0.128906 6.40625 -0.671875 C 5.28125 -1.222656 4.3125 -1.960938 3.5 -2.890625 C 2.6875 -3.816406 2.054688 -4.863281 1.609375 -6.03125 C 1.171875 -7.207031 0.953125 -8.410156 0.953125 -9.640625 C 0.953125 -10.921875 1.1875 -12.144531 1.65625 -13.3125 C 2.125 -14.476562 2.773438 -15.515625 3.609375 -16.421875 C 4.441406 -17.335938 5.421875 -18.0625 6.546875 -18.59375 C 7.679688 -19.132812 8.910156 -19.40625 10.234375 -19.40625 C 11.609375 -19.40625 12.859375 -19.125 13.984375 -18.5625 C 15.117188 -18 16.085938 -17.25 16.890625 -16.3125 C 17.703125 -15.375 18.328125 -14.320312 18.765625 -13.15625 C 19.210938 -12 19.4375 -10.816406 19.4375 -9.609375 C 19.4375 -8.328125 19.203125 -7.097656 18.734375 -5.921875 C 18.273438 -4.753906 17.628906 -3.710938 16.796875 -2.796875 C 15.960938 -1.890625 14.976562 -1.171875 13.84375 -0.640625 C 12.71875 -0.117188 11.492188 0.140625 10.171875 0.140625 Z M 4.046875 -9.640625 C 4.046875 -8.734375 4.1875 -7.851562 4.46875 -7 C 4.757812 -6.15625 5.171875 -5.398438 5.703125 -4.734375 C 6.242188 -4.078125 6.894531 -3.554688 7.65625 -3.171875 C 8.414062 -2.796875 9.265625 -2.609375 10.203125 -2.609375 C 11.179688 -2.609375 12.050781 -2.804688 12.8125 -3.203125 C 13.570312 -3.597656 14.207031 -4.132812 14.71875 -4.8125 C 15.238281 -5.488281 15.632812 -6.25 15.90625 -7.09375 C 16.175781 -7.9375 16.3125 -8.785156 16.3125 -9.640625 C 16.3125 -10.535156 16.171875 -11.40625 15.890625 -12.25 C 15.609375 -13.09375 15.195312 -13.84375 14.65625 -14.5 C 14.113281 -15.164062 13.46875 -15.6875 12.71875 -16.0625 C 11.96875 -16.445312 11.128906 -16.640625 10.203125 -16.640625 C 9.222656 -16.640625 8.351562 -16.4375 7.59375 -16.03125 C 6.832031 -15.632812 6.191406 -15.101562 5.671875 -14.4375 C 5.148438 -13.769531 4.75 -13.019531 4.46875 -12.1875 C 4.1875 -11.351562 4.046875 -10.503906 4.046875 -9.640625 Z M 4.046875 -9.640625 "/></g></g></g><g fill="#000000" fill-opacity="1"><g transform="translate(225.530923, 287.981583)"><g><path d="M 9.015625 -19.1875 L 11.859375 -19.1875 L 14.25 -12.640625 L 16.671875 -19.1875 L 19.515625 -19.1875 L 16.203125 -10.609375 L 19.078125 -3.53125 L 25.078125 -19.265625 L 28.421875 -19.265625 L 20.515625 0 L 17.890625 0 L 14.28125 -8.625 L 10.640625 0 L 7.984375 0 L 0.109375 -19.265625 L 3.421875 -19.265625 L 9.4375 -3.53125 L 12.328125 -10.609375 Z M 9.015625 -19.1875 "/></g></g></g><g fill="#000000" fill-opacity="1"><g transform="translate(256.649055, 287.981583)"><g><path d="M 15.390625 -2.6875 L 15.390625 0 L 2.171875 0 L 2.171875 -19.265625 L 15.140625 -19.265625 L 15.140625 -16.578125 L 5.21875 -16.578125 L 5.21875 -11.09375 L 13.8125 -11.09375 L 13.8125 -8.578125 L 5.21875 -8.578125 L 5.21875 -2.6875 Z M 15.390625 -2.6875 "/></g></g></g><g fill="#000000" fill-opacity="1"><g transform="translate(275.613425, 287.981583)"><g><path d="M 2.171875 0 L 2.171875 -19.265625 L 10.5625 -19.265625 C 11.425781 -19.265625 12.21875 -19.082031 12.9375 -18.71875 C 13.664062 -18.363281 14.296875 -17.882812 14.828125 -17.28125 C 15.367188 -16.6875 15.785156 -16.019531 16.078125 -15.28125 C 16.378906 -14.539062 16.53125 -13.78125 16.53125 -13 C 16.53125 -12.144531 16.375 -11.328125 16.0625 -10.546875 C 15.757812 -9.773438 15.320312 -9.109375 14.75 -8.546875 C 14.175781 -7.984375 13.507812 -7.578125 12.75 -7.328125 L 17.28125 0 L 13.875 0 L 9.6875 -6.703125 L 5.21875 -6.703125 L 5.21875 0 Z M 5.21875 -9.390625 L 10.53125 -9.390625 C 11.09375 -9.390625 11.585938 -9.550781 12.015625 -9.875 C 12.453125 -10.207031 12.796875 -10.644531 13.046875 -11.1875 C 13.304688 -11.738281 13.4375 -12.34375 13.4375 -13 C 13.4375 -13.664062 13.289062 -14.265625 13 -14.796875 C 12.707031 -15.335938 12.332031 -15.769531 11.875 -16.09375 C 11.414062 -16.414062 10.914062 -16.578125 10.375 -16.578125 L 5.21875 -16.578125 Z M 5.21875 -9.390625 "/></g></g></g><g fill="#000000" fill-opacity="1"><g transform="translate(296.151265, 287.981583)"><g><path d="M 3.578125 -19.265625 L 8.90625 -9.6875 L 14.28125 -19.265625 L 17.609375 -19.265625 L 10.421875 -6.890625 L 10.421875 0 L 7.375 0 L 7.375 -6.953125 L 0.25 -19.265625 Z M 3.578125 -19.265625 "/></g></g></g><g fill="#000000" fill-opacity="1"><g transform="translate(170.352699, 260.354945)"><g><path d="M 11.703125 0 L 11.703125 -97.71875 L 24.078125 -97.71875 L 24.078125 -11.015625 L 78.578125 -11.015625 L 78.578125 0 Z M 11.703125 0 "/></g></g></g><path stroke-linecap="butt" transform="matrix(0.380295, -0.646433, 0.646433, 0.380295, 210.54361, 156.94373)" fill="none" stroke-linejoin="miter" d="M -0.00098512 4.501457 L 42.279478 4.500003 " stroke="#ffffff" stroke-width="9" stroke-opacity="1" stroke-miterlimit="4"/><path stroke-linecap="butt" transform="matrix(0.375, -0.649519, 0.649519, 0.375, 176.537892, 239.541049)" fill="none" stroke-linejoin="miter" d="M -0.00207682 4.501522 L 57.986037 4.502373 " stroke="#ffffff" stroke-width="9" stroke-opacity="1" stroke-miterlimit="4"/></svg>