<svg xmlns="http://www.w3.org/2000/svg" xmlns:xlink="http://www.w3.org/1999/xlink" width="500" zoomAndPan="magnify" viewBox="0 0 375 374.999991" height="500" preserveAspectRatio="xMidYMid meet" version="1.0"><defs><g/><clipPath id="836af93e7c"><path d="M 174 124.3125 L 201 124.3125 L 201 161 L 174 161 Z M 174 124.3125 " clip-rule="nonzero"/></clipPath><clipPath id="f325523043"><path d="M 151.25 147 L 188 147 L 188 175 L 151.25 175 Z M 151.25 147 " clip-rule="nonzero"/></clipPath></defs><path fill="#a6a6a6" d="M 195.390625 196.765625 L 179.582031 196.765625 C 176.53125 196.765625 174.035156 194.269531 174.035156 191.21875 L 174.035156 183.542969 L 177.730469 183.542969 L 177.730469 191.21875 C 177.730469 192.238281 178.5625 193.070312 179.582031 193.070312 L 195.390625 193.070312 C 196.410156 193.070312 197.242188 192.238281 197.242188 191.21875 L 197.242188 160.558594 L 200.941406 160.558594 L 200.941406 191.21875 C 200.941406 194.269531 198.460938 196.765625 195.390625 196.765625 Z M 195.390625 196.765625 " fill-opacity="1" fill-rule="nonzero"/><g clip-path="url(#836af93e7c)"><path fill="#03989e" d="M 177.730469 160.558594 L 174.035156 160.558594 L 174.035156 129.898438 C 174.035156 126.84375 176.53125 124.347656 179.582031 124.347656 L 195.390625 124.347656 C 198.445312 124.347656 200.941406 126.84375 200.941406 129.898438 L 200.941406 137.570312 L 197.242188 137.570312 L 197.242188 129.898438 C 197.242188 128.878906 196.410156 128.046875 195.390625 128.046875 L 179.582031 128.046875 C 178.5625 128.046875 177.730469 128.878906 177.730469 129.898438 Z M 177.730469 160.558594 " fill-opacity="1" fill-rule="nonzero"/></g><g clip-path="url(#f325523043)"><path fill="#03989e" d="M 187.496094 174.019531 L 156.835938 174.019531 C 153.785156 174.019531 151.285156 171.523438 151.285156 168.472656 L 151.285156 152.660156 C 151.285156 149.609375 153.785156 147.113281 156.835938 147.113281 L 164.507812 147.113281 L 164.507812 150.8125 L 156.835938 150.8125 C 155.816406 150.8125 154.984375 151.644531 154.984375 152.660156 L 154.984375 168.472656 C 154.984375 169.488281 155.816406 170.324219 156.835938 170.324219 L 187.496094 170.324219 Z M 187.496094 174.019531 " fill-opacity="1" fill-rule="nonzero"/></g><path fill="#a6a6a6" d="M 218.15625 174.019531 L 210.484375 174.019531 L 210.484375 170.324219 L 218.15625 170.324219 C 219.175781 170.324219 220.007812 169.488281 220.007812 168.472656 L 220.007812 152.660156 C 220.007812 151.644531 219.175781 150.8125 218.15625 150.8125 L 187.496094 150.8125 L 187.496094 147.113281 L 218.15625 147.113281 C 221.207031 147.113281 223.707031 149.609375 223.707031 152.660156 L 223.707031 168.472656 C 223.707031 171.523438 221.207031 174.019531 218.15625 174.019531 Z M 218.15625 174.019531 " fill-opacity="1" fill-rule="nonzero"/><g fill="#03989e" fill-opacity="1"><g transform="translate(55.523127, 228.662738)"><g><path d="M 11.375 -19.875 C 12.769531 -19.875 14.128906 -19.601562 15.453125 -19.0625 C 16.785156 -18.53125 17.929688 -17.785156 18.890625 -16.828125 L 16.9375 -14.390625 C 16.21875 -15.160156 15.367188 -15.769531 14.390625 -16.21875 C 13.410156 -16.675781 12.421875 -16.90625 11.421875 -16.90625 C 9.441406 -16.90625 7.769531 -16.234375 6.40625 -14.890625 C 5.039062 -13.546875 4.359375 -11.898438 4.359375 -9.953125 C 4.359375 -7.992188 5.039062 -6.335938 6.40625 -4.984375 C 7.769531 -3.640625 9.441406 -2.96875 11.421875 -2.96875 C 13.484375 -2.96875 15.320312 -3.75 16.9375 -5.3125 L 18.921875 -3.109375 C 17.898438 -2.109375 16.710938 -1.316406 15.359375 -0.734375 C 14.003906 -0.148438 12.632812 0.140625 11.25 0.140625 C 8.351562 0.140625 5.914062 -0.820312 3.9375 -2.75 C 1.957031 -4.6875 0.96875 -7.078125 0.96875 -9.921875 C 0.96875 -12.734375 1.96875 -15.09375 3.96875 -17 C 5.976562 -18.914062 8.445312 -19.875 11.375 -19.875 Z M 11.375 -19.875 "/></g></g></g><g fill="#03989e" fill-opacity="1"><g transform="translate(79.465855, 228.662738)"><g><path d="M 15.390625 -4.46875 L 5.40625 -4.46875 L 3.5 0 L 0.03125 0 L 8.765625 -19.796875 L 12.1875 -19.796875 L 20.84375 0 L 17.28125 0 Z M 14.109375 -7.4375 L 10.375 -16.234375 L 6.640625 -7.4375 Z M 14.109375 -7.4375 "/></g></g></g><g fill="#03989e" fill-opacity="1"><g transform="translate(104.567467, 228.662738)"><g><path d="M 15.15625 0 L 11.53125 -6 C 11.34375 -5.976562 11.046875 -5.96875 10.640625 -5.96875 L 5.9375 -5.96875 L 5.9375 0 L 2.609375 0 L 2.609375 -19.796875 L 10.640625 -19.796875 C 13.160156 -19.796875 15.117188 -19.207031 16.515625 -18.03125 C 17.910156 -16.851562 18.609375 -15.1875 18.609375 -13.03125 C 18.609375 -11.445312 18.253906 -10.109375 17.546875 -9.015625 C 16.835938 -7.921875 15.828125 -7.125 14.515625 -6.625 L 18.953125 0 Z M 5.9375 -8.96875 L 10.640625 -8.96875 C 13.835938 -8.96875 15.4375 -10.296875 15.4375 -12.953125 C 15.4375 -15.515625 13.835938 -16.796875 10.640625 -16.796875 L 5.9375 -16.796875 Z M 5.9375 -8.96875 "/></g></g></g><g fill="#03989e" fill-opacity="1"><g transform="translate(129.245099, 228.662738)"><g><path d="M 16.75 -16.796875 L 5.9375 -16.796875 L 5.9375 -11.453125 L 15.609375 -11.453125 L 15.609375 -8.453125 L 5.9375 -8.453125 L 5.9375 -3 L 17.078125 -3 L 17.078125 0 L 2.609375 0 L 2.609375 -19.796875 L 16.75 -19.796875 Z M 16.75 -16.796875 "/></g></g></g><g fill="#03989e" fill-opacity="1"><g transform="translate(152.028928, 228.662738)"><g><path d="M 11.375 -19.875 C 12.769531 -19.875 14.128906 -19.601562 15.453125 -19.0625 C 16.785156 -18.53125 17.929688 -17.785156 18.890625 -16.828125 L 16.9375 -14.390625 C 16.21875 -15.160156 15.367188 -15.769531 14.390625 -16.21875 C 13.410156 -16.675781 12.421875 -16.90625 11.421875 -16.90625 C 9.441406 -16.90625 7.769531 -16.234375 6.40625 -14.890625 C 5.039062 -13.546875 4.359375 -11.898438 4.359375 -9.953125 C 4.359375 -7.992188 5.039062 -6.335938 6.40625 -4.984375 C 7.769531 -3.640625 9.441406 -2.96875 11.421875 -2.96875 C 13.484375 -2.96875 15.320312 -3.75 16.9375 -5.3125 L 18.921875 -3.109375 C 17.898438 -2.109375 16.710938 -1.316406 15.359375 -0.734375 C 14.003906 -0.148438 12.632812 0.140625 11.25 0.140625 C 8.351562 0.140625 5.914062 -0.820312 3.9375 -2.75 C 1.957031 -4.6875 0.96875 -7.078125 0.96875 -9.921875 C 0.96875 -12.734375 1.96875 -15.09375 3.96875 -17 C 5.976562 -18.914062 8.445312 -19.875 11.375 -19.875 Z M 11.375 -19.875 "/></g></g></g><g fill="#03989e" fill-opacity="1"><g transform="translate(175.971661, 228.662738)"><g><path d="M 3.984375 -17 C 6.003906 -18.914062 8.492188 -19.875 11.453125 -19.875 C 14.410156 -19.875 16.898438 -18.914062 18.921875 -17 C 20.941406 -15.09375 21.953125 -12.722656 21.953125 -9.890625 C 21.953125 -7.066406 20.941406 -4.6875 18.921875 -2.75 C 16.898438 -0.820312 14.410156 0.140625 11.453125 0.140625 C 8.492188 0.140625 6.003906 -0.820312 3.984375 -2.75 C 1.972656 -4.6875 0.96875 -7.066406 0.96875 -9.890625 C 0.96875 -12.722656 1.972656 -15.09375 3.984375 -17 Z M 11.484375 -16.890625 C 9.523438 -16.890625 7.847656 -16.210938 6.453125 -14.859375 C 5.054688 -13.515625 4.359375 -11.859375 4.359375 -9.890625 C 4.359375 -7.929688 5.054688 -6.269531 6.453125 -4.90625 C 7.859375 -3.539062 9.53125 -2.859375 11.46875 -2.859375 C 13.414062 -2.859375 15.078125 -3.539062 16.453125 -4.90625 C 17.835938 -6.269531 18.53125 -7.929688 18.53125 -9.890625 C 18.53125 -11.859375 17.835938 -13.515625 16.453125 -14.859375 C 15.078125 -16.210938 13.421875 -16.890625 11.484375 -16.890625 Z M 11.484375 -16.890625 "/></g></g></g><g fill="#03989e" fill-opacity="1"><g transform="translate(203.108393, 228.662738)"><g><path d="M 19.765625 0 L 16.484375 0 L 5.9375 -14.203125 L 5.9375 0 L 2.609375 0 L 2.609375 -19.796875 L 5.875 -19.796875 L 16.484375 -5.578125 L 16.484375 -19.796875 L 19.765625 -19.796875 Z M 19.765625 0 "/></g></g></g><g fill="#03989e" fill-opacity="1"><g transform="translate(229.736344, 228.662738)"><g><path d="M 19.765625 0 L 16.484375 0 L 5.9375 -14.203125 L 5.9375 0 L 2.609375 0 L 2.609375 -19.796875 L 5.875 -19.796875 L 16.484375 -5.578125 L 16.484375 -19.796875 L 19.765625 -19.796875 Z M 19.765625 0 "/></g></g></g><g fill="#03989e" fill-opacity="1"><g transform="translate(256.364295, 228.662738)"><g><path d="M 16.75 -16.796875 L 5.9375 -16.796875 L 5.9375 -11.453125 L 15.609375 -11.453125 L 15.609375 -8.453125 L 5.9375 -8.453125 L 5.9375 -3 L 17.078125 -3 L 17.078125 0 L 2.609375 0 L 2.609375 -19.796875 L 16.75 -19.796875 Z M 16.75 -16.796875 "/></g></g></g><g fill="#03989e" fill-opacity="1"><g transform="translate(279.148129, 228.662738)"><g><path d="M 11.375 -19.875 C 12.769531 -19.875 14.128906 -19.601562 15.453125 -19.0625 C 16.785156 -18.53125 17.929688 -17.785156 18.890625 -16.828125 L 16.9375 -14.390625 C 16.21875 -15.160156 15.367188 -15.769531 14.390625 -16.21875 C 13.410156 -16.675781 12.421875 -16.90625 11.421875 -16.90625 C 9.441406 -16.90625 7.769531 -16.234375 6.40625 -14.890625 C 5.039062 -13.546875 4.359375 -11.898438 4.359375 -9.953125 C 4.359375 -7.992188 5.039062 -6.335938 6.40625 -4.984375 C 7.769531 -3.640625 9.441406 -2.96875 11.421875 -2.96875 C 13.484375 -2.96875 15.320312 -3.75 16.9375 -5.3125 L 18.921875 -3.109375 C 17.898438 -2.109375 16.710938 -1.316406 15.359375 -0.734375 C 14.003906 -0.148438 12.632812 0.140625 11.25 0.140625 C 8.351562 0.140625 5.914062 -0.820312 3.9375 -2.75 C 1.957031 -4.6875 0.96875 -7.078125 0.96875 -9.921875 C 0.96875 -12.734375 1.96875 -15.09375 3.96875 -17 C 5.976562 -18.914062 8.445312 -19.875 11.375 -19.875 Z M 11.375 -19.875 "/></g></g></g><g fill="#03989e" fill-opacity="1"><g transform="translate(303.090861, 228.662738)"><g><path d="M 16.125 -16.796875 L 9.84375 -16.796875 L 9.84375 0 L 6.5 0 L 6.5 -16.796875 L 0.25 -16.796875 L 0.25 -19.796875 L 16.125 -19.796875 Z M 16.125 -16.796875 "/></g></g></g><g fill="#a6a6a6" fill-opacity="1"><g transform="translate(139.205306, 248.687928)"><g><path d="M 6.984375 0 L 5.8125 0 L 5.8125 -2.90625 L 2.09375 -2.90625 L 2.09375 0 L 0.921875 0 L 0.921875 -7 L 2.09375 -7 L 2.09375 -3.953125 L 5.8125 -3.953125 L 5.8125 -7 L 6.984375 -7 Z M 6.984375 0 "/></g></g></g><g fill="#a6a6a6" fill-opacity="1"><g transform="translate(149.612182, 248.687928)"><g><path d="M 5.921875 -5.9375 L 2.09375 -5.9375 L 2.09375 -4.046875 L 5.515625 -4.046875 L 5.515625 -2.984375 L 2.09375 -2.984375 L 2.09375 -1.0625 L 6.046875 -1.0625 L 6.046875 0 L 0.921875 0 L 0.921875 -7 L 5.921875 -7 Z M 5.921875 -5.9375 "/></g></g></g><g fill="#a6a6a6" fill-opacity="1"><g transform="translate(158.669594, 248.687928)"><g><path d="M 5.4375 -1.578125 L 1.90625 -1.578125 L 1.234375 0 L 0.015625 0 L 3.09375 -7 L 4.3125 -7 L 7.375 0 L 6.109375 0 Z M 4.984375 -2.625 L 3.671875 -5.734375 L 2.34375 -2.625 Z M 4.984375 -2.625 "/></g></g></g><g fill="#a6a6a6" fill-opacity="1"><g transform="translate(168.546677, 248.687928)"><g><path d="M 2.09375 -1.0625 L 5.125 -1.0625 L 5.125 0 L 0.921875 0 L 0.921875 -7 L 2.09375 -7 Z M 2.09375 -1.0625 "/></g></g></g><g fill="#a6a6a6" fill-opacity="1"><g transform="translate(176.38456, 248.687928)"><g><path d="M 5.703125 -5.9375 L 3.484375 -5.9375 L 3.484375 0 L 2.296875 0 L 2.296875 -5.9375 L 0.09375 -5.9375 L 0.09375 -7 L 5.703125 -7 Z M 5.703125 -5.9375 "/></g></g></g><g fill="#a6a6a6" fill-opacity="1"><g transform="translate(184.672265, 248.687928)"><g><path d="M 6.984375 0 L 5.8125 0 L 5.8125 -2.90625 L 2.09375 -2.90625 L 2.09375 0 L 0.921875 0 L 0.921875 -7 L 2.09375 -7 L 2.09375 -3.953125 L 5.8125 -3.953125 L 5.8125 -7 L 6.984375 -7 Z M 6.984375 0 "/></g></g></g><g fill="#a6a6a6" fill-opacity="1"><g transform="translate(195.079141, 248.687928)"><g/></g></g><g fill="#a6a6a6" fill-opacity="1"><g transform="translate(200.15812, 248.687928)"><g><path d="M 4.015625 -7.03125 C 4.515625 -7.03125 5 -6.929688 5.46875 -6.734375 C 5.9375 -6.546875 6.34375 -6.285156 6.6875 -5.953125 L 5.984375 -5.09375 C 5.734375 -5.363281 5.429688 -5.578125 5.078125 -5.734375 C 4.734375 -5.898438 4.390625 -5.984375 4.046875 -5.984375 C 3.335938 -5.984375 2.742188 -5.742188 2.265625 -5.265625 C 1.785156 -4.785156 1.546875 -4.203125 1.546875 -3.515625 C 1.546875 -2.828125 1.785156 -2.242188 2.265625 -1.765625 C 2.742188 -1.285156 3.335938 -1.046875 4.046875 -1.046875 C 4.765625 -1.046875 5.410156 -1.320312 5.984375 -1.875 L 6.6875 -1.09375 C 6.332031 -0.738281 5.910156 -0.457031 5.421875 -0.25 C 4.941406 -0.0507812 4.460938 0.046875 3.984375 0.046875 C 2.953125 0.046875 2.085938 -0.289062 1.390625 -0.96875 C 0.691406 -1.65625 0.34375 -2.503906 0.34375 -3.515625 C 0.34375 -4.503906 0.695312 -5.335938 1.40625 -6.015625 C 2.113281 -6.691406 2.984375 -7.03125 4.015625 -7.03125 Z M 4.015625 -7.03125 "/></g></g></g><g fill="#a6a6a6" fill-opacity="1"><g transform="translate(209.625365, 248.687928)"><g><path d="M 5.4375 -1.578125 L 1.90625 -1.578125 L 1.234375 0 L 0.015625 0 L 3.09375 -7 L 4.3125 -7 L 7.375 0 L 6.109375 0 Z M 4.984375 -2.625 L 3.671875 -5.734375 L 2.34375 -2.625 Z M 4.984375 -2.625 "/></g></g></g><g fill="#a6a6a6" fill-opacity="1"><g transform="translate(219.502451, 248.687928)"><g><path d="M 5.359375 0 L 4.078125 -2.125 C 4.015625 -2.113281 3.910156 -2.109375 3.765625 -2.109375 L 2.09375 -2.109375 L 2.09375 0 L 0.921875 0 L 0.921875 -7 L 3.765625 -7 C 4.648438 -7 5.335938 -6.789062 5.828125 -6.375 C 6.328125 -5.957031 6.578125 -5.367188 6.578125 -4.609375 C 6.578125 -4.046875 6.453125 -3.570312 6.203125 -3.1875 C 5.953125 -2.800781 5.59375 -2.519531 5.125 -2.34375 L 6.703125 0 Z M 2.09375 -3.171875 L 3.765625 -3.171875 C 4.890625 -3.171875 5.453125 -3.640625 5.453125 -4.578125 C 5.453125 -5.484375 4.890625 -5.9375 3.765625 -5.9375 L 2.09375 -5.9375 Z M 2.09375 -3.171875 "/></g></g></g><g fill="#a6a6a6" fill-opacity="1"><g transform="translate(229.229596, 248.687928)"><g><path d="M 5.921875 -5.9375 L 2.09375 -5.9375 L 2.09375 -4.046875 L 5.515625 -4.046875 L 5.515625 -2.984375 L 2.09375 -2.984375 L 2.09375 -1.0625 L 6.046875 -1.0625 L 6.046875 0 L 0.921875 0 L 0.921875 -7 L 5.921875 -7 Z M 5.921875 -5.9375 "/></g></g></g></svg>